<svg xmlns="http://www.w3.org/2000/svg" viewBox="0 0 16 16"><path fill="#b88955" d="M7 6h2c.554 0 1 .446 1 1v2c0 .554-.446 1-1 1H7c-.554 0-1-.446-1-1V7c0-.554.446-1 1-1"/><path fill="#8a8d57" d="M7 0h2c.554 0 1 .446 1 1v3c0 .554-.446 1-1 1H7c-.554 0-1-.446-1-1V1c0-.554.446-1 1-1"/><path fill="#b96f52" d="M12 3h2c.554 0 1 .446 1 1v3c0 .554-.446 1-1 1h-2c-.554 0-1-.446-1-1V4c0-.554.446-1 1-1"/><path fill="#8a6fab" d="M12 9h2c.554 0 1 .446 1 1v3c0 .554-.446 1-1 1h-2c-.554 0-1-.446-1-1v-3c0-.554.446-1 1-1"/><path fill="#5d96a4" d="M7 11h2c.554 0 1 .446 1 1v3c0 .554-.446 1-1 1H7c-.554 0-1-.446-1-1v-3c0-.554.446-1 1-1"/><path fill="#d08f73" d="M2 9h2c.554 0 1 .446 1 1v3c0 .554-.446 1-1 1H2c-.554 0-1-.446-1-1v-3c0-.554.446-1 1-1"/><path fill="#6f82a8" d="M2 3h2c.554 0 1 .446 1 1v3c0 .554-.446 1-1 1H2c-.554 0-1-.446-1-1V4c0-.554.446-1 1-1"/></svg>
